<svg xmlns="http://www.w3.org/2000/svg" width="1024" height="1024" viewBox="74 104 875 850"
    version="1.1">
    <path
        d="M 538.587 334.250 C 552.930 378.962, 525.739 428.160, 441 510.817 C 318.333 630.469, 293.037 705.510, 337.558 817.683 C 341.101 826.610, 344 834.199, 344 834.547 C 344 836.240, 366.581 853.272, 378.507 860.574 C 402.386 875.193, 438.366 889.668, 458.027 892.564 C 462.087 893.162, 461.554 892.754, 452.252 888.143 C 350.595 837.756, 369.281 666.180, 489.135 549.487 C 512.041 527.184, 522 518.714, 522 521.534 C 522 521.828, 517.084 528.538, 511.075 536.446 C 434.143 637.691, 406.738 723.766, 422.069 816 C 425.647 837.529, 426.785 841.087, 429.856 840.352 C 645.115 788.808, 691.615 598.969, 549.719 351 C 546.414 345.225, 542.632 338.587, 541.313 336.250 C 538.699 331.616, 537.447 330.698, 538.587 334.250"
        stroke="none" fill="#50d3d8" fill-rule="evenodd" />
    <path
        d="M 511.625 119 C 511.315 119.825, 508.984 127.250, 506.446 135.500 C 487.054 198.526, 455.575 258.337, 382.500 371 C 304.096 491.880, 276.685 543.704, 263.538 595.914 C 245.671 666.867, 266.748 749.027, 318.075 808.500 C 326.495 818.256, 344 835.938, 344 834.687 C 344 834.262, 341.101 826.610, 337.558 817.683 C 293.037 705.510, 318.333 630.469, 441 510.817 C 523.808 430.044, 551.068 382.248, 539.582 337.969 C 537.801 331.103, 538.179 330.700, 541.267 336.171 C 542.611 338.552, 546.414 345.225, 549.719 351 C 688.302 593.180, 647.066 781.694, 443.500 836.596 C 426.463 841.191, 427.401 840.397, 430.563 847.545 C 445.144 880.516, 474.863 898.196, 515.473 898.058 C 686.334 897.478, 810.294 725.683, 752.658 569.348 C 734.098 519.007, 712.577 480.954, 630.864 354 C 563.411 249.201, 534.201 192.379, 516.063 130.680 C 513.932 123.431, 511.935 118.175, 511.625 119"
        stroke="none" fill="#23415c" fill-rule="evenodd" />
</svg>